<svg xmlns="http://www.w3.org/2000/svg" viewBox="0 0 24 24">
  <defs>
    <linearGradient id="brainGrad" x1="0%" y1="0%" x2="100%" y2="100%">
      <stop offset="0%" style="stop-color:#10b981;stop-opacity:1" />
      <stop offset="100%" style="stop-color:#059669;stop-opacity:1" />
    </linearGradient>
  </defs>
  <!-- Brain icon - filled version for better favicon visibility -->
  <path d="M9.5 2A2.5 2.5 0 0 1 12 4.5v15a2.5 2.5 0 0 1-2.5 2.5 2.5 2.5 0 0 1-2.5-2.5v-15A2.5 2.5 0 0 1 9.5 2Z" fill="url(#brainGrad)"/>
  <path d="M14.5 2A2.5 2.5 0 0 0 12 4.5v15a2.5 2.5 0 0 0 2.5 2.5 2.5 2.5 0 0 0 2.5-2.5v-15A2.5 2.5 0 0 0 14.5 2Z" fill="url(#brainGrad)"/>
  <path d="M12 4.5a2.5 2.5 0 0 1 2.5-2.5 2.5 2.5 0 0 1 2.5 2.5v15a2.5 2.5 0 0 1-2.5 2.5 2.5 2.5 0 0 1-2.5-2.5v-15Z" fill="url(#brainGrad)" opacity="0.7"/>
  <circle cx="12" cy="11" r="1.2" fill="#ffffff" opacity="0.9"/>
</svg>
